<svg xmlns="http://www.w3.org/2000/svg" xmlns:xlink="http://www.w3.org/1999/xlink" width="500" zoomAndPan="magnify" viewBox="0 0 375 374.999991" height="500" preserveAspectRatio="xMidYMid meet" version="1.0"><defs><g/><clipPath id="78fe4dfaaa"><path d="M 176 80 L 220 80 L 220 181 L 176 181 Z M 176 80 " clip-rule="nonzero"/></clipPath><clipPath id="e9679b8491"><path d="M 207.050781 79.929688 L 242.277344 92.792969 L 206.769531 190.011719 L 171.542969 177.148438 Z M 207.050781 79.929688 " clip-rule="nonzero"/></clipPath><clipPath id="96229ff7a4"><path d="M 207.050781 79.929688 L 242.277344 92.792969 L 206.769531 190.011719 L 171.542969 177.148438 Z M 207.050781 79.929688 " clip-rule="nonzero"/></clipPath><clipPath id="b613b82b6c"><path d="M 201 91 L 241 91 L 241 190 L 201 190 Z M 201 91 " clip-rule="nonzero"/></clipPath><clipPath id="0af1c07b98"><path d="M 207.050781 79.929688 L 242.277344 92.792969 L 206.769531 190.011719 L 171.542969 177.148438 Z M 207.050781 79.929688 " clip-rule="nonzero"/></clipPath><clipPath id="5590698aac"><path d="M 207.050781 79.929688 L 242.277344 92.792969 L 206.769531 190.011719 L 171.542969 177.148438 Z M 207.050781 79.929688 " clip-rule="nonzero"/></clipPath><clipPath id="92324cab3d"><path d="M 151 111 L 276 111 L 276 241 L 151 241 Z M 151 111 " clip-rule="nonzero"/></clipPath><clipPath id="d74ee98a71"><path d="M 199.503906 259 L 132.988281 199.492188 L 238.503906 81.554688 L 305.019531 141.0625 Z M 199.503906 259 " clip-rule="nonzero"/></clipPath><clipPath id="c630520698"><path d="M 199.503906 259 L 132.988281 199.492188 L 238.503906 81.554688 L 305.019531 141.0625 Z M 199.503906 259 " clip-rule="nonzero"/></clipPath><clipPath id="f98caabb9c"><path d="M 142 140 L 252 140 L 252 250 L 142 250 Z M 142 140 " clip-rule="nonzero"/></clipPath><clipPath id="2231d66d26"><path d="M 245.109375 134.988281 L 256.675781 242.984375 L 148.675781 254.550781 L 137.113281 146.550781 Z M 245.109375 134.988281 " clip-rule="nonzero"/></clipPath><clipPath id="3de36376b7"><path d="M 250.894531 188.984375 C 247.699219 159.164062 220.933594 137.574219 191.113281 140.769531 C 161.289062 143.960938 139.699219 170.726562 142.894531 200.550781 C 146.085938 230.375 172.851562 251.960938 202.675781 248.765625 C 232.5 245.574219 254.085938 218.808594 250.894531 188.984375 Z M 250.894531 188.984375 " clip-rule="nonzero"/></clipPath><clipPath id="4305b525c3"><path d="M 142 140 L 252 140 L 252 250 L 142 250 Z M 142 140 " clip-rule="nonzero"/></clipPath><clipPath id="2b673a7797"><path d="M 245.109375 134.988281 L 256.6875 243.117188 L 148.558594 254.699219 L 136.980469 146.566406 Z M 245.109375 134.988281 " clip-rule="nonzero"/></clipPath><clipPath id="ac5582d3ee"><path d="M 245.109375 134.988281 L 256.675781 242.980469 L 148.683594 254.542969 L 137.117188 146.550781 Z M 245.109375 134.988281 " clip-rule="nonzero"/></clipPath><clipPath id="06ecdac92a"><path d="M 250.894531 188.984375 C 247.699219 159.160156 220.9375 137.574219 191.113281 140.769531 C 161.292969 143.960938 139.707031 170.726562 142.902344 200.546875 C 146.09375 230.367188 172.855469 251.953125 202.679688 248.761719 C 232.5 245.566406 254.085938 218.804688 250.894531 188.984375 Z M 250.894531 188.984375 " clip-rule="nonzero"/></clipPath><clipPath id="e81780448d"><path d="M 81 183 L 177 183 L 177 218 L 81 218 Z M 81 183 " clip-rule="nonzero"/></clipPath><clipPath id="562a4816cb"><path d="M 174.308594 178.765625 L 177.828125 211.609375 L 83.269531 221.734375 L 79.753906 188.890625 Z M 174.308594 178.765625 " clip-rule="nonzero"/></clipPath><clipPath id="2a60d2a2f2"><path d="M 176.066406 195.1875 C 175.097656 186.117188 153.160156 181.03125 127.070312 183.824219 C 100.980469 186.617188 80.621094 196.234375 81.589844 205.304688 C 82.5625 214.375 104.5 219.460938 130.585938 216.667969 C 156.675781 213.875 177.039062 204.257812 176.066406 195.1875 Z M 176.066406 195.1875 " clip-rule="nonzero"/></clipPath></defs><rect x="-37.5" width="450" fill="#ffffff" y="-37.499999" height="449.999989" fill-opacity="1"/><rect x="-37.5" width="450" fill="#ffffff" y="-37.499999" height="449.999989" fill-opacity="1"/><g clip-path="url(#78fe4dfaaa)"><g clip-path="url(#e9679b8491)"><g clip-path="url(#96229ff7a4)"><path fill="#ffbd59" d="M 199.554688 100.683594 C 201.25 96.789062 203.007812 92.921875 204.621094 88.992188 C 205.757812 86.226562 206.695312 83.375 207.722656 80.5625 C 208.019531 80.660156 208.320312 80.761719 208.617188 80.863281 C 206.390625 88.136719 204.160156 95.414062 201.929688 102.6875 C 202.238281 102.804688 202.542969 102.917969 202.851562 103.03125 C 205.851562 96.003906 208.851562 88.976562 211.855469 81.949219 C 212.019531 82 212.1875 82.050781 212.355469 82.101562 C 210.011719 89.640625 207.664062 97.179688 205.320312 104.722656 C 205.640625 104.84375 205.957031 104.964844 206.277344 105.085938 C 209.480469 97.863281 212.6875 90.640625 215.890625 83.417969 C 216.054688 83.476562 216.222656 83.539062 216.386719 83.597656 C 214.015625 90.832031 211.648438 98.0625 209.277344 105.292969 C 209.578125 105.417969 209.875 105.539062 210.175781 105.660156 C 213.300781 98.734375 216.425781 91.804688 219.554688 84.878906 C 219.667969 84.90625 219.785156 84.929688 219.902344 84.957031 C 219.832031 85.394531 219.78125 85.835938 219.683594 86.269531 C 219.585938 86.714844 219.464844 87.164062 219.316406 87.597656 C 216.605469 95.472656 213.917969 103.359375 211.160156 111.21875 C 210.089844 114.277344 208.269531 116.621094 204.824219 117.320312 C 204.292969 117.425781 203.675781 118.140625 203.480469 118.703125 C 199.226562 130.769531 195 142.839844 190.835938 154.9375 C 188.507812 161.699219 186.363281 168.519531 184.011719 175.273438 C 183.234375 177.519531 182.042969 179.597656 179.351562 180.113281 C 178.859375 179.929688 178.363281 179.75 177.871094 179.570312 C 176.15625 177.367188 176.617188 174.957031 177.484375 172.6875 C 180.175781 165.636719 183.042969 158.65625 185.769531 151.625 C 190.25 140.058594 194.675781 128.476562 199.09375 116.890625 C 199.28125 116.40625 199.375 115.570312 199.105469 115.28125 C 196.933594 112.984375 197.027344 110.175781 197.121094 107.34375 C 197.933594 105.125 198.742188 102.902344 199.554688 100.683594 Z M 199.554688 100.683594 " fill-opacity="1" fill-rule="evenodd"/></g></g></g><g clip-path="url(#b613b82b6c)"><g clip-path="url(#0af1c07b98)"><g clip-path="url(#5590698aac)"><path fill="#ffbd59" d="M 240.316406 92.078125 C 240.222656 93.359375 240.421875 94.742188 240 95.898438 C 234.585938 110.609375 228.917969 125.226562 223.65625 139.988281 C 218.535156 154.351562 213.804688 168.855469 208.902344 183.296875 C 208.035156 185.847656 207.019531 188.273438 204.097656 189.132812 C 203.53125 188.925781 202.964844 188.71875 202.398438 188.511719 C 200.351562 186.234375 201.109375 183.710938 202.015625 181.367188 C 205.152344 173.277344 208.433594 165.242188 211.664062 157.1875 C 213.972656 151.425781 216.261719 145.65625 218.625 139.921875 C 219.109375 138.75 219.203125 137.742188 218.398438 136.738281 C 216.828125 134.796875 216.976562 132.828125 217.816406 130.535156 C 221.636719 120.121094 225.433594 109.699219 231.21875 100.171875 C 233.273438 96.792969 235.402344 93.378906 239.292969 91.703125 C 239.636719 91.828125 239.976562 91.953125 240.316406 92.078125 Z M 240.316406 92.078125 " fill-opacity="1" fill-rule="evenodd"/></g></g></g><g clip-path="url(#92324cab3d)"><g clip-path="url(#d74ee98a71)"><g clip-path="url(#c630520698)"><path fill="#ffbd59" d="M 153.957031 181.847656 C 152.101562 187.28125 151.320312 192.960938 151.640625 198.71875 C 151.960938 204.480469 153.367188 210.035156 155.8125 215.230469 C 158.351562 220.605469 161.902344 225.359375 166.371094 229.359375 C 170.839844 233.355469 175.960938 236.359375 181.585938 238.285156 C 187.015625 240.140625 192.695312 240.925781 198.453125 240.605469 C 204.214844 240.285156 209.769531 238.875 214.964844 236.429688 C 220.355469 233.894531 225.105469 230.347656 229.109375 225.871094 C 233.113281 221.394531 236.113281 216.285156 238.035156 210.660156 C 239.890625 205.226562 240.675781 199.546875 240.355469 193.789062 C 240.035156 188.03125 238.628906 182.472656 236.179688 177.277344 C 234.835938 174.425781 233.203125 171.746094 231.300781 169.269531 C 236.824219 162.863281 241.722656 157.820312 245.527344 154.101562 C 251.964844 147.800781 257.3125 143.304688 264.367188 134.820312 C 268.546875 129.800781 271.660156 125.386719 273.667969 122.394531 C 276.179688 119.585938 275.941406 115.285156 273.132812 112.773438 C 270.820312 110.703125 266.71875 110.867188 263.507812 113.304688 C 260.746094 115.679688 256.566406 119.4375 251.859375 124.433594 C 244.234375 132.539062 240.660156 138.132812 234.800781 145.574219 C 231.753906 149.449219 227.550781 154.511719 222.082031 160.292969 C 218.507812 157.6875 214.59375 155.660156 210.394531 154.222656 C 204.960938 152.367188 199.285156 151.585938 193.523438 151.902344 C 187.765625 152.222656 182.207031 153.632812 177.015625 156.078125 C 171.636719 158.613281 166.882812 162.167969 162.886719 166.636719 C 158.886719 171.105469 155.890625 176.214844 153.957031 181.847656 Z M 238.65625 189.800781 C 238.597656 189.40625 238.535156 189.023438 238.460938 188.628906 C 238.542969 189.015625 238.605469 189.410156 238.65625 189.800781 Z M 233.730469 175.28125 C 233.582031 175.011719 233.433594 174.746094 233.269531 174.480469 C 233.425781 174.738281 233.589844 175.003906 233.730469 175.28125 Z M 268.730469 117.292969 C 269.753906 118.210938 269.039062 120.691406 267.117188 122.839844 C 265.195312 124.984375 262.808594 125.972656 261.785156 125.058594 C 260.761719 124.140625 261.476562 121.660156 263.398438 119.511719 C 265.320312 117.382812 267.707031 116.378906 268.730469 117.292969 Z M 268.730469 117.292969 " fill-opacity="1" fill-rule="nonzero"/></g></g></g><g clip-path="url(#f98caabb9c)"><g clip-path="url(#2231d66d26)"><g clip-path="url(#3de36376b7)"><path fill="#ff914d" d="M 245.109375 134.988281 L 256.675781 242.984375 L 148.675781 254.550781 L 137.113281 146.550781 Z M 245.109375 134.988281 " fill-opacity="1" fill-rule="nonzero"/></g></g></g><g clip-path="url(#4305b525c3)"><g clip-path="url(#2b673a7797)"><g clip-path="url(#ac5582d3ee)"><g clip-path="url(#06ecdac92a)"><path stroke-linecap="butt" transform="matrix(0.0798527, 0.745737, -0.745737, 0.0798527, 245.110784, 134.986837)" fill="none" stroke-linejoin="miter" d="M 72.408549 -0.00231749 C 32.415345 0.0000244983 -0.00141559 32.415148 0.000926391 72.408352 C -0.00135582 112.395822 32.418946 144.813137 72.406971 144.81024 C 112.394441 144.812523 144.811202 112.397399 144.814039 72.40475 C 144.811142 32.416725 112.396019 -0.000035276 72.408549 -0.00231749 Z M 72.408549 -0.00231749 " stroke="#ffbd59" stroke-width="10" stroke-opacity="1" stroke-miterlimit="4"/></g></g></g></g><g clip-path="url(#e81780448d)"><g clip-path="url(#562a4816cb)"><g clip-path="url(#2a60d2a2f2)"><path fill="#ff914d" d="M 174.308594 178.765625 L 177.828125 211.609375 L 83.398438 221.722656 L 79.882812 188.875 Z M 174.308594 178.765625 " fill-opacity="1" fill-rule="nonzero"/></g></g></g><path stroke-linecap="butt" transform="matrix(1.068189, -0.281972, 0.281972, 1.068189, 71.179673, 155.366138)" fill="none" stroke-linejoin="miter" d="M -1.334464 0.899378 C -0.511446 0.856993 0.373023 0.706494 1.318041 0.451302 C 2.262156 0.199528 3.195166 -0.121002 4.116167 -0.506869 C 5.038974 -0.899573 5.905276 -1.299878 6.712559 -1.712106 C 7.52668 -2.12253 8.209935 -2.49436 8.762325 -2.827597 L 8.76328 14.831781 L 12.166217 8.035963 C 12.6111 7.791367 13.082048 7.586564 13.579963 7.418135 C 14.081297 7.250608 14.641598 7.16447 15.266801 7.164946 C 17.376545 7.166012 19.041663 7.784745 20.262153 9.021143 C 21.487867 10.251606 22.101386 12.124982 22.100193 14.636952 L 22.102427 26.833272 C 22.100179 27.659136 22.198356 28.478598 22.393541 29.290754 C 22.593048 30.100395 22.885781 30.667692 23.262197 31.001096 L 14.101911 31.000242 C 14.475054 30.667228 14.76289 30.103253 14.965417 29.308315 C 15.166331 28.505639 15.264493 27.690466 15.265839 26.868021 L 15.264523 16.302916 C 15.264796 15.235175 14.984856 14.411616 14.426316 13.839978 C 13.873901 13.258986 13.186471 12.967817 12.367445 12.967374 C 11.321119 12.969097 10.520015 13.302504 9.959812 13.970113 C 9.407348 14.636108 9.008534 15.357289 8.763368 16.133657 L 8.762062 26.833375 C 8.764135 27.656723 8.865731 28.477087 9.064335 29.290146 C 9.263841 30.099786 9.555672 30.670502 9.936409 31.00139 L 0.764964 31.001247 C 1.144945 30.670038 1.432781 30.106063 1.636211 29.307707 C 1.837124 28.50503 1.935287 27.689857 1.936633 26.867412 L 1.936082 5.840144 C 1.935912 5.591431 1.911725 5.212043 1.863523 4.701982 C 1.819641 4.189404 1.696228 3.65949 1.498506 3.106302 C 1.294849 2.547892 0.975234 2.068578 0.527599 1.672491 C 0.0886066 1.271372 -0.531405 1.071138 -1.335854 1.070885 Z M -1.334464 0.899378 " stroke="#ff914d" stroke-width="8.749991" stroke-opacity="1" stroke-miterlimit="4"/><path stroke-linecap="butt" transform="matrix(1.084346, -0.211493, 0.211493, 1.084346, 98.159866, 148.296655)" fill="none" stroke-linejoin="miter" d="M 1.602703 15.831942 C 1.603615 15.587156 1.579632 15.211431 1.531432 14.701296 C 1.486701 14.191838 1.363506 13.659871 1.165315 13.106073 C 0.964332 12.548127 0.639607 12.070516 0.194613 11.673917 C -0.245558 11.271054 -0.865747 11.070838 -1.669425 11.072593 L -1.668168 10.899923 C -0.842487 10.859231 0.0409124 10.707314 0.984146 10.451791 C 1.926702 10.199739 2.861973 9.874217 3.784459 9.484961 C 4.706944 9.095705 5.570433 8.694942 6.380513 8.290967 C 7.192623 7.87658 7.878027 7.502324 8.429784 7.166845 L 8.430195 22.365456 C 8.430447 23.435418 8.705513 24.259981 9.258864 24.839823 C 9.820509 25.414077 10.509773 25.703415 11.33495 25.702251 C 12.375795 25.703525 13.175808 25.369635 13.72737 24.702696 C 14.286549 24.033641 14.688122 23.323038 14.932087 22.570889 L 14.931821 15.830744 C 14.932057 15.589429 14.908751 15.210234 14.867491 14.701452 C 14.82276 14.191994 14.699565 13.660027 14.501375 13.106229 C 14.300391 12.548283 13.975667 12.070672 13.530672 11.674073 C 13.086354 11.274003 12.466842 11.070317 11.670105 11.073426 L 11.667891 10.900078 C 12.486632 10.858033 13.369354 10.709587 14.312587 10.454064 C 15.25582 10.198541 16.190415 9.87649 17.113577 9.483763 C 18.036063 9.094507 18.898875 8.697215 19.709631 8.289769 C 20.521741 7.875383 21.207145 7.501126 21.765843 7.167001 L 21.76538 14.335689 C 21.765666 15.848753 21.76722 17.336848 21.765894 18.802767 C 21.768716 20.265892 21.765629 21.944009 21.768398 23.832207 C 21.765823 24.45492 21.820803 25.078052 21.929871 25.700926 C 22.043085 26.321006 22.281308 26.835782 22.647333 27.2494 C 23.014035 27.659548 23.596812 27.866876 24.396343 27.867915 L 24.393647 28.029497 C 23.751746 28.365407 23.071166 28.733399 22.362319 29.135505 C 21.650678 29.533463 20.968744 29.908396 20.311694 30.266567 C 19.659469 30.618476 19.083247 30.91316 18.576766 31.145795 C 18.077226 31.379785 17.7269 31.495179 17.528584 31.496126 C 16.973839 31.495999 16.500501 31.263185 16.112042 30.79836 C 15.727731 30.330741 15.4344 29.747579 15.232728 29.045403 C 15.03385 28.347374 14.932819 27.664827 14.933106 26.998438 L 14.931169 23.83155 L 11.529754 30.632307 C 11.107239 30.877717 10.64223 31.082418 10.131258 31.245732 C 9.619608 31.412517 9.055559 31.497034 8.428699 31.497251 C 6.321361 31.496906 4.654878 30.880077 3.432718 29.647442 C 2.213352 28.418955 1.602514 26.545446 1.60232 24.034535 Z M 1.602703 15.831942 " stroke="#ff914d" stroke-width="8.749991" stroke-opacity="1" stroke-miterlimit="4"/><path stroke-linecap="butt" transform="matrix(1.095858, -0.140108, 0.140108, 1.095858, 125.32677, 143.042657)" fill="none" stroke-linejoin="miter" d="M -1.335934 11.072096 L -1.335454 10.901059 C -0.509959 10.856889 0.375031 10.709824 1.316906 10.452402 C 2.261839 10.198935 3.194248 9.87614 4.117641 9.484466 C 5.040585 9.0963 5.904355 8.697003 6.71201 8.290531 C 7.527575 7.877942 8.210155 7.501819 8.762807 7.166117 L 8.76322 14.829968 L 12.166227 8.036128 C 12.610732 7.793536 13.082766 7.586545 13.581881 7.418661 C 14.080996 7.250778 14.640839 7.165514 15.264469 7.166827 C 17.374826 7.165734 19.042249 7.785277 20.260172 9.021052 C 21.489065 10.254665 22.101744 12.12597 22.101716 14.635414 L 22.099928 26.833101 C 22.101563 27.656723 22.199686 28.478423 22.395196 29.291186 C 22.59466 30.100891 22.885585 30.669205 23.264014 30.999188 L 14.102913 31.000661 C 14.476616 30.670597 14.762831 30.10478 14.964615 29.307166 C 15.16334 28.505596 15.263863 27.691471 15.266184 26.86479 L 15.265573 16.302928 C 15.266372 15.237228 14.986689 14.413703 14.425628 13.839367 C 13.872478 13.258914 13.18607 12.967976 12.369911 12.967 C 11.321747 12.968443 10.520002 13.300814 9.96072 13.967173 C 9.408005 14.637935 9.009528 15.356933 8.763943 16.134689 L 8.764602 26.835574 C 8.76273 27.658748 8.864809 28.477389 9.063826 29.290601 C 9.266798 30.100754 9.554215 30.66862 9.936151 30.999051 L 0.764529 30.999179 C 1.145247 30.670011 1.434968 30.104643 1.636752 29.307029 C 1.835478 28.505459 1.936001 27.691334 1.937873 26.86816 L 1.937278 15.832214 C 1.936204 15.589687 1.913142 15.21246 1.864585 14.700085 C 1.819086 14.191665 1.698222 13.659352 1.498037 13.106203 C 1.295241 12.545592 0.974673 12.06973 0.529767 11.674215 C 0.0892655 11.272134 -0.530297 11.071727 -1.335934 11.072096 Z M -1.335934 11.072096 " stroke="#ff914d" stroke-width="8.749991" stroke-opacity="1" stroke-miterlimit="4"/><path stroke-linecap="butt" transform="matrix(1.102591, -0.0694854, 0.0694854, 1.102591, 152.972718, 139.573496)" fill="none" stroke-linejoin="miter" d="M 8.494487 27.900495 C 7.050949 27.4765 5.763269 26.77182 4.631669 25.782923 C 3.496317 24.797333 2.607208 23.614694 1.960813 22.234783 C 1.321253 20.858846 1.000675 19.368385 1.002165 17.77068 C 1.002483 16.303985 1.265874 14.935353 1.79984 13.658171 C 2.330276 12.380766 3.074575 11.251466 4.028985 10.273575 C 4.987146 9.292378 6.090982 8.529386 7.333212 7.987683 C 8.572358 7.4387 9.907523 7.165021 11.335179 7.166422 C 11.600949 7.165457 11.862301 7.178385 12.115484 7.208511 C 12.372862 7.228274 12.622293 7.261707 12.864 7.305282 C 13.88601 7.390946 14.79455 7.253349 15.589843 6.888962 C 16.392415 6.521491 17.066037 6.007724 17.610488 5.351192 C 18.158468 4.694881 18.564659 3.983579 18.828839 3.220814 C 19.09677 2.454742 19.206321 1.728288 19.164773 1.038368 C 19.8509 1.506743 20.569037 1.916908 21.311683 2.275475 C 22.058303 2.627207 22.789057 2.949597 23.500863 3.235365 C 23.07595 4.749701 22.420982 5.866917 21.532431 6.586792 C 20.640129 7.309973 19.634386 7.75321 18.511229 7.923338 C 17.388516 8.086408 16.263889 8.11119 15.136905 8.004739 C 16.356292 8.556319 17.454694 9.341184 18.432333 10.355806 C 19.406888 11.363147 20.181771 12.50316 20.757205 13.772315 C 21.339919 15.038386 21.627936 16.370913 21.628313 17.770339 C 21.629551 19.212332 21.363076 20.573685 20.832417 21.854618 C 20.298674 23.128271 19.561878 24.250959 18.618499 25.222459 C 17.675565 26.186902 16.579232 26.943281 15.329944 27.484539 C 14.087714 28.026242 12.756078 28.300144 11.335479 28.299187 C 11.133672 28.297098 10.939144 28.291924 10.748368 28.283444 C 10.557814 28.271436 10.363954 28.255676 10.163481 28.232414 C 9.431467 28.211082 8.74263 28.291669 8.097191 28.470646 C 7.455726 28.642788 6.939904 28.957474 6.549725 29.414705 C 6.159768 29.868406 5.96425 30.49733 5.963172 31.301476 C 5.962953 32.148189 6.231455 32.834697 6.761174 33.367614 C 7.297951 33.900975 8.011091 34.16557 8.900372 34.164928 C 9.764729 34.166258 10.572907 34.047136 11.32799 33.814841 C 12.086601 33.582768 12.837295 33.307683 13.579848 32.993114 C 14.325485 32.685825 15.093823 32.411852 15.891473 32.178697 C 16.696181 31.945986 17.550233 31.829755 18.464215 31.830669 C 19.374669 31.831362 20.195867 32.124023 20.927809 32.708655 C 21.662835 33.300566 22.106441 34.019366 22.262156 34.865278 L 21.034558 40.796487 C 20.742215 40.15099 20.295852 39.644583 19.69194 39.277045 C 19.094864 38.913481 18.372413 38.740411 17.527894 38.761588 C 16.622942 38.786042 15.778586 38.917056 14.997913 39.161909 C 14.220546 39.410514 13.466101 39.688906 12.734356 40.000613 C 12.002834 40.308791 11.245305 40.579903 10.465299 40.81417 C 9.689044 41.045131 8.834769 41.164891 7.899614 41.162642 C 5.741917 41.164832 4.083434 40.553696 2.931001 39.333205 C 1.77504 38.112492 1.195141 36.520662 1.19439 34.564994 C 1.197868 33.385464 1.430851 32.386908 1.897313 31.562492 C 2.363551 30.741605 2.969104 30.071209 3.71044 29.551081 C 4.458834 29.031399 5.255683 28.64231 6.093707 28.3869 C 6.942539 28.128628 7.742799 27.966493 8.494487 27.900495 Z M 11.303719 13.399751 C 10.414438 13.400393 9.650238 13.777368 9.017731 14.538178 C 8.38214 15.291708 8.063325 16.359253 8.065037 17.737507 C 8.06322 19.115538 8.382254 20.180766 9.015079 20.932748 C 9.651212 21.688481 10.413918 22.066026 11.303199 22.065384 C 12.210124 22.065854 12.984911 21.689547 13.63131 20.933155 C 14.273958 20.180069 14.599831 19.112969 14.598119 17.734716 C 14.599713 16.360213 14.273845 15.291011 13.630433 14.538362 C 12.983936 13.778434 12.207115 13.399999 11.303719 13.399751 Z M 11.303719 13.399751 " stroke="#ff914d" stroke-width="8.749991" stroke-opacity="1" stroke-miterlimit="4"/><path stroke-linecap="butt" transform="matrix(1.104767, -0.00515111, 0.00515111, 1.104767, 179.439103, 137.995069)" fill="none" stroke-linejoin="miter" d="M -1.335787 10.902689 C -0.508194 10.857046 0.372914 10.709114 1.318176 10.451871 C 2.263422 10.198164 3.194837 9.877212 4.115976 9.485496 C 5.04065 9.093796 5.905249 8.694744 6.71331 8.288357 C 7.528458 7.878468 8.209084 7.503309 8.762242 7.16645 L 8.763598 13.700642 C 8.922583 12.96947 9.170044 12.221031 9.513052 11.455359 C 9.859629 10.682631 10.294286 9.977495 10.813488 9.339933 C 11.336275 8.691781 11.950397 8.171343 12.662977 7.768047 C 13.379075 7.368303 14.168501 7.166907 15.027702 7.167377 C 15.695973 7.166957 16.345955 7.297277 16.981184 7.558353 C 17.616447 7.812358 18.046554 8.083086 18.26797 8.370519 C 17.952061 9.390897 17.653467 10.489143 17.365118 11.665225 C 17.076753 12.844842 16.845125 13.989366 16.666697 15.09878 C 16.40014 14.634346 15.85398 14.228716 15.028184 13.888963 C 14.209508 13.538636 13.365258 13.364981 12.498969 13.368013 C 10.00976 13.367015 8.764282 14.312342 8.762566 16.196923 L 8.762477 26.832654 C 8.762155 27.660033 8.864419 28.477283 9.0657 29.291459 C 9.267014 30.098563 9.55429 30.669169 9.934617 30.999773 L 0.76625 30.999454 C 1.146124 30.668859 1.435156 30.104476 1.636884 29.306323 C 1.835091 28.504617 1.937884 27.691859 1.938189 26.868015 L 1.936606 15.832729 C 1.937743 15.588763 1.911221 15.210308 1.864095 14.700931 C 1.820504 14.19157 1.699226 13.660632 1.496742 13.104565 C 1.297793 12.548515 0.974731 12.069673 0.527522 11.675113 C 0.0909531 11.27353 -0.530414 11.072627 -1.333043 11.072421 Z M -1.335787 10.902689 " stroke="#ff914d" stroke-width="8.749991" stroke-opacity="1" stroke-miterlimit="4"/><path stroke-linecap="butt" transform="matrix(1.103264, 0.0578371, -0.0578371, 1.103264, 202.355499, 137.887609)" fill="none" stroke-linejoin="miter" d="M 7.330685 31.030917 L 0.000191372 7.703598 L 6.996371 7.701518 L 10.896919 20.105226 L 14.931022 7.703348 L 21.930917 7.704614 L 11.197606 40.69948 L 4.197711 40.698214 Z M 7.330685 31.030917 " stroke="#ff914d" stroke-width="8.749991" stroke-opacity="1" stroke-miterlimit="4"/><g fill="#ffffff" fill-opacity="1"><g transform="translate(79.920803, 188.479992)"><g><path d="M -9.90625 -31.78125 C -9.039062 -32.050781 -8.140625 -32.457031 -7.203125 -33 C -6.265625 -33.539062 -5.359375 -34.148438 -4.484375 -34.828125 C -3.609375 -35.503906 -2.796875 -36.175781 -2.046875 -36.84375 C -1.304688 -37.507812 -0.679688 -38.097656 -0.171875 -38.609375 L 4.796875 -19.734375 L 6.53125 -27.953125 C 6.925781 -28.335938 7.367188 -28.691406 7.859375 -29.015625 C 8.347656 -29.335938 8.925781 -29.585938 9.59375 -29.765625 C 11.84375 -30.359375 13.796875 -30.171875 15.453125 -29.203125 C 17.109375 -28.234375 18.289062 -26.40625 19 -23.71875 L 22.4375 -10.6875 C 22.664062 -9.800781 23 -8.953125 23.4375 -8.140625 C 23.882812 -7.335938 24.359375 -6.8125 24.859375 -6.5625 L 15.0625 -3.96875 C 15.375 -4.4375 15.523438 -5.125 15.515625 -6.03125 C 15.503906 -6.945312 15.378906 -7.84375 15.140625 -8.71875 L 12.171875 -20.015625 C 11.867188 -21.160156 11.335938 -21.960938 10.578125 -22.421875 C 9.828125 -22.878906 9.007812 -22.988281 8.125 -22.75 C 7.019531 -22.457031 6.265625 -21.875 5.859375 -21 C 5.453125 -20.132812 5.222656 -19.25 5.171875 -18.34375 L 8.1875 -6.921875 C 8.414062 -6.035156 8.75 -5.1875 9.1875 -4.375 C 9.632812 -3.570312 10.109375 -3.046875 10.609375 -2.796875 L 0.8125 -0.21875 C 1.125 -0.675781 1.273438 -1.359375 1.265625 -2.265625 C 1.253906 -3.179688 1.128906 -4.078125 0.890625 -4.953125 L -5.03125 -27.4375 C -5.101562 -27.6875 -5.234375 -28.078125 -5.421875 -28.609375 C -5.609375 -29.148438 -5.890625 -29.691406 -6.265625 -30.234375 C -6.640625 -30.773438 -7.117188 -31.195312 -7.703125 -31.5 C -8.285156 -31.800781 -9.003906 -31.835938 -9.859375 -31.609375 Z M -9.90625 -31.78125 "/></g></g></g><g fill="#ffffff" fill-opacity="1"><g transform="translate(104.716145, 181.911386)"><g><path d="M -1.46875 -16.78125 C -1.519531 -17.050781 -1.625 -17.457031 -1.78125 -18 C -1.9375 -18.550781 -2.179688 -19.101562 -2.515625 -19.65625 C -2.859375 -20.21875 -3.3125 -20.664062 -3.875 -21 C -4.4375 -21.34375 -5.15625 -21.425781 -6.03125 -21.25 L -6.0625 -21.4375 C -5.175781 -21.664062 -4.242188 -22.019531 -3.265625 -22.5 C -2.296875 -22.976562 -1.351562 -23.523438 -0.4375 -24.140625 C 0.46875 -24.753906 1.316406 -25.367188 2.109375 -25.984375 C 2.898438 -26.597656 3.5625 -27.144531 4.09375 -27.625 L 7.3125 -11.140625 C 7.539062 -9.984375 8.015625 -9.148438 8.734375 -8.640625 C 9.460938 -8.140625 10.269531 -7.972656 11.15625 -8.140625 C 12.289062 -8.367188 13.085938 -8.898438 13.546875 -9.734375 C 14.015625 -10.566406 14.300781 -11.421875 14.40625 -12.296875 L 12.984375 -19.59375 C 12.929688 -19.863281 12.828125 -20.269531 12.671875 -20.8125 C 12.523438 -21.363281 12.28125 -21.914062 11.9375 -22.46875 C 11.59375 -23.03125 11.140625 -23.476562 10.578125 -23.8125 C 10.015625 -24.15625 9.300781 -24.242188 8.4375 -24.078125 L 8.40625 -24.265625 C 9.28125 -24.492188 10.203125 -24.84375 11.171875 -25.3125 C 12.148438 -25.789062 13.097656 -26.335938 14.015625 -26.953125 C 14.929688 -27.566406 15.785156 -28.179688 16.578125 -28.796875 C 17.367188 -29.410156 18.03125 -29.960938 18.5625 -30.453125 L 20.09375 -22.671875 C 20.40625 -21.035156 20.71875 -19.421875 21.03125 -17.828125 C 21.34375 -16.242188 21.695312 -14.429688 22.09375 -12.390625 C 22.226562 -11.710938 22.421875 -11.046875 22.671875 -10.390625 C 22.921875 -9.734375 23.285156 -9.222656 23.765625 -8.859375 C 24.253906 -8.492188 24.929688 -8.394531 25.796875 -8.5625 L 25.828125 -8.375 C 25.203125 -7.875 24.546875 -7.332031 23.859375 -6.75 C 23.171875 -6.164062 22.507812 -5.613281 21.875 -5.09375 C 21.238281 -4.570312 20.675781 -4.128906 20.1875 -3.765625 C 19.695312 -3.410156 19.34375 -3.210938 19.125 -3.171875 C 18.519531 -3.054688 17.957031 -3.207031 17.4375 -3.625 C 16.914062 -4.050781 16.46875 -4.617188 16.09375 -5.328125 C 15.726562 -6.046875 15.476562 -6.769531 15.34375 -7.5 L 14.671875 -10.9375 L 12.4375 -2.84375 C 12.03125 -2.488281 11.566406 -2.164062 11.046875 -1.875 C 10.523438 -1.59375 9.925781 -1.382812 9.25 -1.25 C 6.957031 -0.800781 5.019531 -1.113281 3.4375 -2.1875 C 1.851562 -3.269531 0.796875 -5.175781 0.265625 -7.90625 Z M -1.46875 -16.78125 "/></g></g></g><g fill="#ffffff" fill-opacity="1"><g transform="translate(129.670112, 177.014266)"><g><path d="M -4.25 -21.65625 L -4.265625 -21.84375 C -3.378906 -22 -2.4375 -22.28125 -1.4375 -22.6875 C -0.445312 -23.101562 0.523438 -23.585938 1.484375 -24.140625 C 2.453125 -24.703125 3.347656 -25.265625 4.171875 -25.828125 C 5.003906 -26.398438 5.703125 -26.90625 6.265625 -27.34375 L 7.34375 -18.953125 L 10.109375 -26.875 C 10.566406 -27.207031 11.054688 -27.5 11.578125 -27.75 C 12.109375 -28 12.710938 -28.164062 13.390625 -28.25 C 15.691406 -28.539062 17.597656 -28.097656 19.109375 -26.921875 C 20.628906 -25.742188 21.566406 -23.78125 21.921875 -21.03125 L 23.640625 -7.671875 C 23.753906 -6.753906 23.976562 -5.867188 24.3125 -5.015625 C 24.644531 -4.160156 25.039062 -3.578125 25.5 -3.265625 L 15.453125 -1.96875 C 15.828125 -2.394531 16.066406 -3.054688 16.171875 -3.953125 C 16.273438 -4.859375 16.269531 -5.765625 16.15625 -6.671875 L 14.671875 -18.25 C 14.523438 -19.425781 14.101562 -20.289062 13.40625 -20.84375 C 12.71875 -21.394531 11.921875 -21.613281 11.015625 -21.5 C 9.878906 -21.351562 9.050781 -20.875 8.53125 -20.0625 C 8.019531 -19.257812 7.6875 -18.414062 7.53125 -17.53125 L 9.03125 -5.8125 C 9.144531 -4.894531 9.367188 -4.003906 9.703125 -3.140625 C 10.035156 -2.285156 10.425781 -1.703125 10.875 -1.390625 L 0.84375 -0.109375 C 1.207031 -0.523438 1.441406 -1.179688 1.546875 -2.078125 C 1.660156 -2.984375 1.660156 -3.890625 1.546875 -4.796875 L 0 -16.875 C -0.03125 -17.144531 -0.109375 -17.554688 -0.234375 -18.109375 C -0.359375 -18.671875 -0.566406 -19.242188 -0.859375 -19.828125 C -1.160156 -20.410156 -1.582031 -20.890625 -2.125 -21.265625 C -2.664062 -21.640625 -3.375 -21.769531 -4.25 -21.65625 Z M -4.25 -21.65625 "/></g></g></g><g fill="#ffffff" fill-opacity="1"><g transform="translate(155.126767, 173.753824)"><g><path d="M 9.15625 -4.015625 C 7.53125 -4.367188 6.054688 -5.050781 4.734375 -6.0625 C 3.421875 -7.082031 2.363281 -8.328125 1.5625 -9.796875 C 0.757812 -11.265625 0.300781 -12.882812 0.1875 -14.65625 C 0.0820312 -16.269531 0.28125 -17.800781 0.78125 -19.25 C 1.28125 -20.695312 2.019531 -21.992188 3 -23.140625 C 3.988281 -24.285156 5.148438 -25.203125 6.484375 -25.890625 C 7.828125 -26.578125 9.273438 -26.96875 10.828125 -27.0625 C 11.128906 -27.082031 11.421875 -27.09375 11.703125 -27.09375 C 11.984375 -27.09375 12.265625 -27.070312 12.546875 -27.03125 C 13.671875 -27 14.660156 -27.210938 15.515625 -27.671875 C 16.378906 -28.140625 17.085938 -28.75 17.640625 -29.5 C 18.191406 -30.257812 18.585938 -31.070312 18.828125 -31.9375 C 19.066406 -32.8125 19.140625 -33.625 19.046875 -34.375 C 19.835938 -33.90625 20.65625 -33.5 21.5 -33.15625 C 22.351562 -32.820312 23.1875 -32.519531 24 -32.25 C 23.632812 -30.550781 22.984375 -29.273438 22.046875 -28.421875 C 21.109375 -27.566406 20.023438 -27.007812 18.796875 -26.75 C 17.578125 -26.488281 16.34375 -26.375 15.09375 -26.40625 C 16.476562 -25.875 17.742188 -25.082031 18.890625 -24.03125 C 20.035156 -22.988281 20.972656 -21.789062 21.703125 -20.4375 C 22.429688 -19.082031 22.84375 -17.632812 22.9375 -16.09375 C 23.039062 -14.5 22.84375 -12.976562 22.34375 -11.53125 C 21.84375 -10.082031 21.101562 -8.789062 20.125 -7.65625 C 19.15625 -6.519531 18 -5.613281 16.65625 -4.9375 C 15.320312 -4.257812 13.867188 -3.867188 12.296875 -3.765625 C 12.078125 -3.753906 11.863281 -3.75 11.65625 -3.75 C 11.457031 -3.75 11.25 -3.753906 11.03125 -3.765625 C 10.21875 -3.734375 9.457031 -3.597656 8.75 -3.359375 C 8.050781 -3.117188 7.503906 -2.734375 7.109375 -2.203125 C 6.710938 -1.679688 6.539062 -0.976562 6.59375 -0.09375 C 6.65625 0.84375 7 1.585938 7.625 2.140625 C 8.25 2.691406 9.050781 2.9375 10.03125 2.875 C 10.988281 2.820312 11.875 2.640625 12.6875 2.328125 C 13.507812 2.015625 14.316406 1.660156 15.109375 1.265625 C 15.910156 0.867188 16.742188 0.515625 17.609375 0.203125 C 18.484375 -0.109375 19.421875 -0.296875 20.421875 -0.359375 C 21.421875 -0.421875 22.347656 -0.15625 23.203125 0.4375 C 24.054688 1.039062 24.59375 1.796875 24.8125 2.703125 L 23.875 9.34375 C 23.507812 8.65625 22.976562 8.128906 22.28125 7.765625 C 21.59375 7.398438 20.796875 7.257812 19.890625 7.34375 C 18.878906 7.4375 17.953125 7.644531 17.109375 7.96875 C 16.265625 8.289062 15.445312 8.644531 14.65625 9.03125 C 13.875 9.425781 13.0625 9.78125 12.21875 10.09375 C 11.382812 10.414062 10.453125 10.609375 9.421875 10.671875 C 7.035156 10.816406 5.164062 10.253906 3.8125 8.984375 C 2.457031 7.722656 1.710938 6.015625 1.578125 3.859375 C 1.492188 2.554688 1.679688 1.429688 2.140625 0.484375 C 2.597656 -0.453125 3.21875 -1.234375 4 -1.859375 C 4.78125 -2.492188 5.628906 -2.976562 6.546875 -3.3125 C 7.460938 -3.65625 8.332031 -3.890625 9.15625 -4.015625 Z M 11.234375 -20.1875 C 10.265625 -20.125 9.453125 -19.65625 8.796875 -18.78125 C 8.148438 -17.90625 7.875 -16.707031 7.96875 -15.1875 C 8.0625 -13.664062 8.484375 -12.507812 9.234375 -11.71875 C 9.992188 -10.9375 10.859375 -10.578125 11.828125 -10.640625 C 12.835938 -10.703125 13.671875 -11.171875 14.328125 -12.046875 C 14.984375 -12.921875 15.265625 -14.117188 15.171875 -15.640625 C 15.078125 -17.160156 14.648438 -18.3125 13.890625 -19.09375 C 13.128906 -19.882812 12.242188 -20.25 11.234375 -20.1875 Z M 11.234375 -20.1875 "/></g></g></g><g fill="#ffffff" fill-opacity="1"><g transform="translate(179.598788, 172.242831)"><g><path d="M -1.578125 -22.203125 C -0.671875 -22.253906 0.300781 -22.421875 1.34375 -22.703125 C 2.382812 -22.992188 3.414062 -23.359375 4.4375 -23.796875 C 5.457031 -24.234375 6.410156 -24.679688 7.296875 -25.140625 C 8.191406 -25.597656 8.945312 -26.007812 9.5625 -26.375 L 9.59375 -19.15625 C 9.757812 -19.96875 10.03125 -20.796875 10.40625 -21.640625 C 10.78125 -22.492188 11.253906 -23.273438 11.828125 -23.984375 C 12.410156 -24.703125 13.09375 -25.285156 13.875 -25.734375 C 14.65625 -26.179688 15.523438 -26.40625 16.484375 -26.40625 C 17.222656 -26.40625 17.941406 -26.265625 18.640625 -25.984375 C 19.335938 -25.710938 19.816406 -25.414062 20.078125 -25.09375 C 19.734375 -23.96875 19.398438 -22.753906 19.078125 -21.453125 C 18.765625 -20.148438 18.515625 -18.878906 18.328125 -17.640625 C 18.035156 -18.160156 17.429688 -18.609375 16.515625 -18.984375 C 15.609375 -19.367188 14.675781 -19.554688 13.71875 -19.546875 C 10.96875 -19.535156 9.597656 -18.488281 9.609375 -16.40625 L 9.671875 -4.65625 C 9.671875 -3.738281 9.78125 -2.832031 10 -1.9375 C 10.226562 -1.039062 10.550781 -0.410156 10.96875 -0.046875 L 0.84375 0 C 1.257812 -0.363281 1.578125 -0.988281 1.796875 -1.875 C 2.015625 -2.769531 2.125 -3.671875 2.125 -4.578125 L 2.0625 -16.765625 C 2.0625 -17.035156 2.03125 -17.453125 1.96875 -18.015625 C 1.914062 -18.585938 1.78125 -19.175781 1.5625 -19.78125 C 1.34375 -20.394531 0.984375 -20.921875 0.484375 -21.359375 C -0.00390625 -21.796875 -0.691406 -22.015625 -1.578125 -22.015625 Z M -1.578125 -22.203125 "/></g></g></g><g fill="#ffffff" fill-opacity="1"><g transform="translate(200.562548, 172.08878)"><g><path d="M 8.09375 0.453125 L 1.34375 -25.71875 L 9.0625 -25.3125 L 12.65625 -11.40625 L 17.828125 -24.859375 L 25.546875 -24.453125 L 11.796875 11.34375 L 4.078125 10.953125 Z M 8.09375 0.453125 "/></g></g></g><path stroke-linecap="butt" transform="matrix(0.998896, -0.234959, 0.234959, 0.998896, 79.4149, 196.293693)" fill="none" stroke-linejoin="miter" d="M -1.335198 0.901398 C -0.511275 0.856656 0.375851 0.709463 1.319642 0.454371 C 2.263433 0.199279 3.195231 -0.121203 4.118741 -0.506203 C 5.040289 -0.899486 5.904511 -1.298432 6.713149 -1.710453 C 7.526365 -2.125307 8.211853 -2.495904 8.763075 -2.827694 L 8.765849 14.700125 L 11.831093 7.670383 C 12.140383 7.535873 12.449891 7.417058 12.757876 7.321347 C 13.075886 7.216263 13.462997 7.166538 13.932068 7.167377 C 15.33187 7.168149 16.55601 7.483464 17.607323 8.117899 C 18.666048 8.754078 19.551502 9.611507 20.25998 10.689317 C 20.973036 11.764293 21.508892 12.977475 21.865805 14.336273 C 22.22359 15.691365 22.400246 17.101617 22.40035 18.564194 C 22.403074 20.082135 22.189352 21.572627 21.767686 23.049402 C 21.342314 24.525306 20.698962 25.863904 19.828477 27.070864 C 18.964312 28.26758 17.87148 29.222801 16.558263 29.934566 C 15.253329 30.644368 13.698794 31.002167 11.896402 31.000552 L 0.763597 30.998075 C 1.145893 30.669568 1.435316 30.104134 1.634702 29.30635 C 1.834959 28.504861 1.936257 27.691827 1.93489 26.866375 L 1.937752 5.839924 C 1.937952 5.589694 1.913295 5.21239 1.861817 4.699729 C 1.821457 4.189683 1.695868 3.659589 1.497912 3.104653 C 1.297122 2.545139 0.974711 2.070423 0.528717 1.672224 C 0.0910049 1.272063 -0.530441 1.071139 -1.335621 1.069453 Z M 8.764701 16.93279 L 8.763259 24.237392 C 9.030063 24.366629 9.328908 24.476028 9.658701 24.553602 C 9.995906 24.632919 10.36297 24.668422 10.76556 24.669265 C 11.762772 24.669194 12.606513 24.390569 13.29504 23.8408 C 13.986182 23.279915 14.504026 22.541396 14.858596 21.615872 C 15.216001 20.694924 15.394011 19.688763 15.396331 18.59826 C 15.396293 18.066414 15.3374 17.485529 15.223357 16.856476 C 15.114763 16.220884 14.924432 15.616903 14.648659 15.043663 C 14.370924 14.462139 13.994021 13.986338 13.517077 13.619965 C 13.037299 13.249015 12.435472 13.064437 11.700478 13.063618 C 11.034798 13.06737 10.506453 13.252028 10.115441 13.617592 C 9.723558 13.98686 9.434996 14.415627 9.24518 14.906727 C 9.060812 15.391286 8.932241 15.838134 8.861212 16.239857 C 8.795631 16.635041 8.764696 16.866309 8.764701 16.93279 Z M 8.764701 16.93279 " stroke="#ff914d" stroke-width="8.749991" stroke-opacity="1" stroke-miterlimit="4"/><path stroke-linecap="butt" transform="matrix(1.012002, -0.169855, 0.169855, 1.012002, 104.094036, 190.526925)" fill="none" stroke-linejoin="miter" d="M 1.60369 15.832788 C 1.602091 15.589344 1.576865 15.210698 1.531136 14.701233 C 1.485408 14.191768 1.362732 13.657808 1.161849 13.106862 C 0.962226 12.548408 0.641104 12.069919 0.194098 11.67452 C -0.244139 11.272872 -0.866595 11.071901 -1.669515 11.072236 L -1.66807 10.902642 C -0.842572 10.859777 0.040001 10.706835 0.985897 10.452582 C 1.928038 10.1977 2.862121 9.875846 3.78439 9.486391 C 4.70729 9.093182 5.572616 8.69803 6.378506 8.289041 C 7.192535 7.877559 7.876979 7.502226 8.431207 7.166797 L 8.431374 22.367202 C 8.429528 23.436091 8.708327 24.258729 9.259004 24.841366 C 9.81908 25.413999 10.511526 25.703916 11.333847 25.702978 C 12.375826 25.704168 13.173499 25.367139 13.728728 24.703784 C 14.285217 24.03292 14.685921 23.32433 14.932101 22.570505 L 14.932287 15.83111 C 14.930687 15.587666 14.909216 15.20965 14.867241 14.700815 C 14.821513 14.19135 14.702591 13.65802 14.501708 13.107074 C 14.298331 12.54799 13.977209 12.069501 13.533957 11.674732 C 13.088211 11.271824 12.465755 11.070853 11.670344 11.072448 L 11.668035 10.902224 C 12.486024 10.858099 13.367967 10.708911 14.313863 10.454658 C 15.256005 10.199776 16.190717 9.874168 17.112987 9.484713 C 18.035256 9.095258 18.901213 8.696352 19.707103 8.287363 C 20.521131 7.875881 21.209329 7.501178 21.767312 7.166379 L 21.768515 14.334458 C 21.765536 15.847048 21.766338 17.337113 21.767166 18.804023 C 21.768624 20.267178 21.765461 21.941854 21.768937 23.82994 C 21.768223 24.455128 21.821958 25.077874 21.929511 25.701934 C 22.045833 26.319746 22.283051 26.838191 22.646178 27.250391 C 23.01369 27.659468 23.596714 27.865401 24.39525 27.86819 L 24.395065 28.030276 C 23.748215 28.365599 23.07254 28.734684 22.360531 29.13627 C 21.649151 29.534101 20.968462 29.910064 20.310324 30.266653 C 19.660324 30.620747 19.082363 30.913594 18.576441 31.145194 C 18.078027 31.378053 17.729938 31.497187 17.52905 31.498209 C 16.973328 31.497574 16.502982 31.264234 16.110504 30.796929 C 15.725534 30.330883 15.433948 29.745414 15.234483 29.048029 C 15.031895 28.34626 14.930039 27.665257 14.930176 26.997513 L 14.932538 23.832773 L 11.529103 30.633992 C 11.105772 30.879454 10.639308 31.082937 10.129711 31.244441 C 9.618853 31.413453 9.053023 31.49604 8.431589 31.495957 C 6.320091 31.496675 4.655501 30.881476 3.434066 29.64973 C 2.212631 28.417985 1.603972 26.547982 1.601209 24.034708 Z M 1.60369 15.832788 " stroke="#ff914d" stroke-width="8.749991" stroke-opacity="1" stroke-miterlimit="4"/><path stroke-linecap="butt" transform="matrix(1.020865, -0.104086, 0.104086, 1.020865, 129.432433, 186.323894)" fill="none" stroke-linejoin="miter" d="M 8.494761 31.496869 C 7.186077 31.497362 6.064087 31.130422 5.117042 30.398678 C 4.173784 29.667321 3.396131 28.700304 2.783697 27.501417 C 2.171262 26.302529 1.719264 24.993728 1.431877 23.571612 C 1.144875 22.145709 1.002167 20.730691 0.99958 19.32996 C 1.00124 17.887572 1.178262 16.451583 1.531033 15.018209 C 1.887592 13.58522 2.453373 12.276877 3.228764 11.089392 C 4.012115 9.898892 5.027189 8.950124 6.281947 8.240073 C 7.541263 7.522833 9.066164 7.165571 10.864609 7.16527 C 11.687318 7.164971 12.409797 7.284551 13.029032 7.516049 C 13.652053 7.747933 14.205987 8.056955 14.695392 8.435926 L 14.695877 5.841667 C 14.694851 5.589019 14.672099 5.211711 14.632178 4.702554 C 14.588856 4.189224 14.466778 3.660211 14.263316 3.103769 C 14.063641 2.547712 13.741088 2.070961 13.295656 1.673516 C 12.850611 1.272283 12.232075 1.071467 11.432474 1.070296 L 11.434315 0.902121 C 12.250297 0.85522 13.133895 0.708072 14.078309 0.452333 C 15.02651 0.196981 15.961954 -0.120896 16.885413 -0.508869 C 17.805084 -0.897229 18.672509 -1.298568 19.479728 -1.709873 C 20.294907 -2.124192 20.979321 -2.494448 21.529571 -2.824813 L 21.529518 26.89876 C 21.529817 27.721469 21.630896 28.531495 21.833141 29.325051 C 22.032371 30.110647 22.31992 30.66801 22.695403 31.000928 L 14.694448 31.000188 L 14.694535 23.531038 L 12.100974 30.20389 C 11.697187 30.598931 11.190526 30.914609 10.57759 31.146748 C 9.972228 31.37966 9.275427 31.49611 8.494761 31.496869 Z M 7.764548 19.931699 C 7.764601 23.421393 8.807408 25.165421 10.896757 25.164169 C 11.856959 25.166409 12.634743 24.893681 13.229337 24.353558 C 13.832664 23.802846 14.319899 23.15229 14.695216 22.398489 L 14.696562 13.303242 C 14.16544 13.145777 13.576591 13.066607 12.930017 13.065732 C 11.797468 13.065051 10.844945 13.400318 10.080795 14.064731 C 9.31626 14.73293 8.738849 15.592398 8.348949 16.639345 C 7.959821 17.678719 7.763373 18.779828 7.764548 19.931699 Z M 7.764548 19.931699 " stroke="#ff914d" stroke-width="8.749991" stroke-opacity="1" stroke-miterlimit="4"/><path stroke-linecap="butt" transform="matrix(1.025439, -0.0383979, 0.0383979, 1.025439, 154.604291, 183.799735)" fill="none" stroke-linejoin="miter" d="M 8.493745 31.494755 C 7.187118 31.495349 6.061826 31.129418 5.11787 30.396961 C 4.173914 29.664504 3.394896 28.698234 2.784478 27.502099 C 2.170399 26.302017 1.720361 24.993797 1.430846 23.569688 C 1.145136 22.145723 1.000031 20.730831 0.999051 19.332765 C 0.99978 17.88905 1.175494 16.451888 1.53014 15.017617 C 1.888446 13.587291 2.455647 12.27526 3.231456 11.089129 C 4.011212 9.899336 5.029539 8.950848 6.282777 8.239716 C 7.539962 7.524922 9.06568 7.166835 10.863738 7.165595 C 11.686544 7.165931 12.409692 7.284434 13.029519 7.517157 C 13.653151 7.750023 14.209265 8.056548 14.694059 8.436589 L 14.696104 5.838692 C 14.693951 5.591004 14.673959 5.209321 14.63204 4.701108 C 14.586459 4.188949 14.465368 3.658725 14.265104 3.10649 C 14.065126 2.546646 13.740143 2.069737 13.297905 1.672243 C 12.852007 1.270802 12.230897 1.072315 11.430915 1.072834 L 11.433521 0.901511 C 12.250428 0.855913 13.132188 0.706083 14.078801 0.452019 C 15.025413 0.197954 15.963035 -0.121205 16.884059 -0.505745 C 17.805367 -0.897893 18.673704 -1.299643 19.481462 -1.711281 C 20.293024 -2.122776 20.977486 -2.497127 21.530761 -2.826869 L 21.530053 26.897427 C 21.529576 27.724037 21.632661 28.531669 21.831558 29.323842 C 22.034545 30.10855 22.322158 30.667865 22.694398 31.001789 L 14.694863 30.999373 L 14.6965 23.529307 L 12.100108 30.201292 C 11.700519 30.597738 11.189659 30.913831 10.579081 31.146194 C 9.972308 31.3787 9.274565 31.497327 8.493745 31.494755 Z M 7.761033 19.93262 C 7.763697 23.42208 8.806992 25.163924 10.894439 25.165902 C 11.854475 25.163758 12.633996 24.895818 13.229625 24.350529 C 13.832863 23.805525 14.322022 23.153397 14.696961 22.397949 L 14.694752 13.301149 C 14.163515 13.144121 13.576029 13.064982 12.92835 13.067395 C 11.796992 13.066933 10.847388 13.400882 10.083485 14.065578 C 9.315636 14.733936 8.738758 15.592293 8.34919 16.636704 C 7.959622 17.681114 7.762349 18.778438 7.761033 19.93262 Z M 7.761033 19.93262 " stroke="#ff914d" stroke-width="8.749991" stroke-opacity="1" stroke-miterlimit="4"/><path stroke-linecap="butt" transform="matrix(1.025842, 0.025429, -0.025429, 1.025842, 179.845245, 182.917298)" fill="none" stroke-linejoin="miter" d="M 7.3325 31.031818 L -0.000881763 7.703951 L 6.997889 7.701816 L 10.896083 20.102541 L 14.933475 7.703114 L 21.928535 7.704878 L 11.197213 40.699339 L 4.198347 40.697669 Z M 7.3325 31.031818 " stroke="#ff914d" stroke-width="8.749991" stroke-opacity="1" stroke-miterlimit="4"/><g fill="#ffffff" fill-opacity="1"><g transform="translate(86.698636, 227.259462)"><g><path d="M -8.421875 -29.75 C -7.609375 -29.976562 -6.757812 -30.332031 -5.875 -30.8125 C -4.988281 -31.289062 -4.128906 -31.832031 -3.296875 -32.4375 C -2.472656 -33.050781 -1.703125 -33.65625 -0.984375 -34.25 C -0.265625 -34.851562 0.332031 -35.390625 0.8125 -35.859375 L 4.9375 -18.34375 L 6.328125 -26.078125 C 6.617188 -26.285156 6.90625 -26.472656 7.1875 -26.640625 C 7.476562 -26.816406 7.859375 -26.957031 8.328125 -27.0625 C 9.722656 -27.394531 11.019531 -27.367188 12.21875 -26.984375 C 13.414062 -26.609375 14.5 -25.960938 15.46875 -25.046875 C 16.4375 -24.140625 17.253906 -23.050781 17.921875 -21.78125 C 18.597656 -20.507812 19.109375 -19.140625 19.453125 -17.671875 C 19.804688 -16.171875 19.945312 -14.632812 19.875 -13.0625 C 19.800781 -11.488281 19.472656 -10 18.890625 -8.59375 C 18.304688 -7.1875 17.441406 -5.972656 16.296875 -4.953125 C 15.160156 -3.941406 13.6875 -3.222656 11.875 -2.796875 L 0.765625 -0.171875 C 1.066406 -0.597656 1.222656 -1.234375 1.234375 -2.078125 C 1.242188 -2.921875 1.15625 -3.753906 0.96875 -4.578125 L -3.96875 -25.59375 C -4.03125 -25.832031 -4.144531 -26.203125 -4.3125 -26.703125 C -4.476562 -27.203125 -4.722656 -27.707031 -5.046875 -28.21875 C -5.378906 -28.726562 -5.816406 -29.128906 -6.359375 -29.421875 C -6.898438 -29.722656 -7.570312 -29.78125 -8.375 -29.59375 Z M 5.453125 -16.109375 L 7.171875 -8.8125 C 7.460938 -8.75 7.785156 -8.71875 8.140625 -8.71875 C 8.492188 -8.71875 8.867188 -8.765625 9.265625 -8.859375 C 10.273438 -9.097656 11.054688 -9.570312 11.609375 -10.28125 C 12.160156 -10.988281 12.503906 -11.84375 12.640625 -12.84375 C 12.773438 -13.851562 12.71875 -14.898438 12.46875 -15.984375 C 12.332031 -16.523438 12.132812 -17.097656 11.875 -17.703125 C 11.625 -18.316406 11.289062 -18.878906 10.875 -19.390625 C 10.46875 -19.898438 9.984375 -20.285156 9.421875 -20.546875 C 8.859375 -20.804688 8.207031 -20.847656 7.46875 -20.671875 C 6.800781 -20.515625 6.316406 -20.203125 6.015625 -19.734375 C 5.710938 -19.273438 5.523438 -18.78125 5.453125 -18.25 C 5.378906 -17.71875 5.359375 -17.242188 5.390625 -16.828125 C 5.421875 -16.410156 5.441406 -16.171875 5.453125 -16.109375 Z M 5.453125 -16.109375 "/></g></g></g><g fill="#ffffff" fill-opacity="1"><g transform="translate(109.359537, 221.898987)"><g><path d="M -0.953125 -15.609375 C -0.992188 -15.859375 -1.082031 -16.238281 -1.21875 -16.75 C -1.351562 -17.269531 -1.566406 -17.789062 -1.859375 -18.3125 C -2.160156 -18.832031 -2.570312 -19.257812 -3.09375 -19.59375 C -3.613281 -19.925781 -4.269531 -20.023438 -5.0625 -19.890625 L -5.078125 -20.0625 C -4.265625 -20.238281 -3.398438 -20.535156 -2.484375 -20.953125 C -1.578125 -21.378906 -0.691406 -21.863281 0.171875 -22.40625 C 1.035156 -22.957031 1.84375 -23.507812 2.59375 -24.0625 C 3.34375 -24.625 3.972656 -25.117188 4.484375 -25.546875 L 7.0625 -10.171875 C 7.25 -9.097656 7.671875 -8.3125 8.328125 -7.8125 C 8.984375 -7.320312 9.726562 -7.144531 10.5625 -7.28125 C 11.613281 -7.457031 12.367188 -7.925781 12.828125 -8.6875 C 13.285156 -9.457031 13.566406 -10.25 13.671875 -11.0625 L 12.53125 -17.875 C 12.488281 -18.125 12.398438 -18.503906 12.265625 -19.015625 C 12.140625 -19.535156 11.925781 -20.054688 11.625 -20.578125 C 11.332031 -21.097656 10.925781 -21.523438 10.40625 -21.859375 C 9.882812 -22.191406 9.21875 -22.289062 8.40625 -22.15625 L 8.390625 -22.328125 C 9.210938 -22.503906 10.078125 -22.800781 10.984375 -23.21875 C 11.898438 -23.644531 12.789062 -24.128906 13.65625 -24.671875 C 14.53125 -25.222656 15.34375 -25.773438 16.09375 -26.328125 C 16.84375 -26.890625 17.46875 -27.382812 17.96875 -27.8125 L 19.1875 -20.5625 C 19.4375 -19.039062 19.6875 -17.535156 19.9375 -16.046875 C 20.1875 -14.566406 20.472656 -12.867188 20.796875 -10.953125 C 20.898438 -10.316406 21.0625 -9.691406 21.28125 -9.078125 C 21.5 -8.472656 21.832031 -7.992188 22.28125 -7.640625 C 22.726562 -7.285156 23.351562 -7.175781 24.15625 -7.3125 L 24.1875 -7.140625 C 23.59375 -6.703125 22.96875 -6.21875 22.3125 -5.6875 C 21.664062 -5.164062 21.039062 -4.664062 20.4375 -4.1875 C 19.832031 -3.71875 19.296875 -3.320312 18.828125 -3 C 18.359375 -2.675781 18.019531 -2.5 17.8125 -2.46875 C 17.257812 -2.375 16.742188 -2.53125 16.265625 -2.9375 C 15.796875 -3.34375 15.398438 -3.878906 15.078125 -4.546875 C 14.753906 -5.222656 14.535156 -5.898438 14.421875 -6.578125 L 13.890625 -9.78125 L 11.609375 -2.328125 C 11.222656 -2.015625 10.785156 -1.726562 10.296875 -1.46875 C 9.804688 -1.207031 9.242188 -1.023438 8.609375 -0.921875 C 6.472656 -0.554688 4.679688 -0.894531 3.234375 -1.9375 C 1.796875 -2.976562 0.863281 -4.773438 0.4375 -7.328125 Z M -0.953125 -15.609375 "/></g></g></g><g fill="#ffffff" fill-opacity="1"><g transform="translate(132.659094, 217.970698)"><g><path d="M 8.71875 -0.375 C 7.382812 -0.238281 6.195312 -0.492188 5.15625 -1.140625 C 4.125 -1.796875 3.234375 -2.703125 2.484375 -3.859375 C 1.734375 -5.015625 1.132812 -6.304688 0.6875 -7.734375 C 0.25 -9.160156 -0.0390625 -10.585938 -0.1875 -12.015625 C -0.332031 -13.484375 -0.300781 -14.96875 -0.09375 -16.46875 C 0.113281 -17.976562 0.550781 -19.378906 1.21875 -20.671875 C 1.894531 -21.960938 2.832031 -23.035156 4.03125 -23.890625 C 5.238281 -24.742188 6.765625 -25.265625 8.609375 -25.453125 C 9.453125 -25.546875 10.203125 -25.503906 10.859375 -25.328125 C 11.515625 -25.148438 12.113281 -24.894531 12.65625 -24.5625 L 12.375 -27.21875 C 12.351562 -27.46875 12.296875 -27.847656 12.203125 -28.359375 C 12.109375 -28.878906 11.925781 -29.410156 11.65625 -29.953125 C 11.394531 -30.503906 11.019531 -30.960938 10.53125 -31.328125 C 10.039062 -31.691406 9.382812 -31.832031 8.5625 -31.75 L 8.53125 -31.921875 C 9.375 -32.046875 10.265625 -32.285156 11.203125 -32.640625 C 12.140625 -32.992188 13.054688 -33.421875 13.953125 -33.921875 C 14.859375 -34.421875 15.703125 -34.921875 16.484375 -35.421875 C 17.265625 -35.929688 17.925781 -36.382812 18.46875 -36.78125 L 21.5625 -6.421875 C 21.644531 -5.578125 21.828125 -4.765625 22.109375 -3.984375 C 22.390625 -3.203125 22.742188 -2.660156 23.171875 -2.359375 L 15 -1.53125 L 14.21875 -9.140625 L 12.28125 -2.09375 C 11.90625 -1.632812 11.414062 -1.25 10.8125 -0.9375 C 10.21875 -0.632812 9.519531 -0.445312 8.71875 -0.375 Z M 6.765625 -12.109375 C 7.128906 -8.546875 8.378906 -6.875 10.515625 -7.09375 C 11.492188 -7.1875 12.257812 -7.539062 12.8125 -8.15625 C 13.363281 -8.769531 13.796875 -9.488281 14.109375 -10.3125 L 13.15625 -19.59375 C 12.601562 -19.707031 12 -19.726562 11.34375 -19.65625 C 10.1875 -19.539062 9.25 -19.101562 8.53125 -18.34375 C 7.820312 -17.582031 7.320312 -16.648438 7.03125 -15.546875 C 6.738281 -14.441406 6.648438 -13.296875 6.765625 -12.109375 Z M 6.765625 -12.109375 "/></g></g></g><g fill="#ffffff" fill-opacity="1"><g transform="translate(155.794626, 215.588332)"><g><path d="M 8.734375 0.1875 C 7.390625 0.238281 6.21875 -0.09375 5.21875 -0.8125 C 4.226562 -1.53125 3.394531 -2.492188 2.71875 -3.703125 C 2.050781 -4.910156 1.539062 -6.234375 1.1875 -7.671875 C 0.84375 -9.117188 0.640625 -10.554688 0.578125 -11.984375 C 0.523438 -13.460938 0.648438 -14.945312 0.953125 -16.4375 C 1.265625 -17.925781 1.796875 -19.296875 2.546875 -20.546875 C 3.304688 -21.796875 4.3125 -22.804688 5.5625 -23.578125 C 6.820312 -24.359375 8.375 -24.785156 10.21875 -24.859375 C 11.0625 -24.890625 11.804688 -24.796875 12.453125 -24.578125 C 13.097656 -24.359375 13.679688 -24.066406 14.203125 -23.703125 L 14.09375 -26.375 C 14.082031 -26.625 14.046875 -27.007812 13.984375 -27.53125 C 13.929688 -28.050781 13.785156 -28.59375 13.546875 -29.15625 C 13.316406 -29.71875 12.96875 -30.195312 12.5 -30.59375 C 12.03125 -30.988281 11.382812 -31.171875 10.5625 -31.140625 L 10.5625 -31.3125 C 11.40625 -31.382812 12.304688 -31.566406 13.265625 -31.859375 C 14.222656 -32.160156 15.164062 -32.53125 16.09375 -32.96875 C 17.03125 -33.40625 17.90625 -33.847656 18.71875 -34.296875 C 19.53125 -34.742188 20.21875 -35.148438 20.78125 -35.515625 L 21.921875 -5.03125 C 21.953125 -4.1875 22.082031 -3.363281 22.3125 -2.5625 C 22.550781 -1.757812 22.875 -1.195312 23.28125 -0.875 L 15.0625 -0.5625 L 14.78125 -8.21875 L 12.375 -1.296875 C 11.976562 -0.859375 11.472656 -0.507812 10.859375 -0.25 C 10.242188 0.0078125 9.535156 0.15625 8.734375 0.1875 Z M 7.546875 -11.640625 C 7.679688 -8.066406 8.816406 -6.320312 10.953125 -6.40625 C 11.929688 -6.4375 12.71875 -6.742188 13.3125 -7.328125 C 13.90625 -7.910156 14.378906 -8.597656 14.734375 -9.390625 L 14.390625 -18.703125 C 13.835938 -18.847656 13.226562 -18.910156 12.5625 -18.890625 C 11.40625 -18.847656 10.445312 -18.46875 9.6875 -17.75 C 8.9375 -17.03125 8.378906 -16.128906 8.015625 -15.046875 C 7.660156 -13.960938 7.503906 -12.828125 7.546875 -11.640625 Z M 7.546875 -11.640625 "/></g></g></g><g fill="#ffffff" fill-opacity="1"><g transform="translate(179.056948, 214.718402)"><g><path d="M 7.53125 0.21875 L 0.59375 -23.90625 L 7.78125 -23.734375 L 11.46875 -10.90625 L 15.921875 -23.53125 L 23.09375 -23.34375 L 11.25 10.234375 L 4.0625 10.0625 Z M 7.53125 0.21875 "/></g></g></g></svg>